<svg width="512" height="512" viewBox="0 0 512 512" fill="none" xmlns="http://www.w3.org/2000/svg">
<g clip-path="url(#clip0)">
<rect width="512" height="512" fill="#36393E"/>
<path d="M246.763 109.023C250.612 102.356 260.235 102.356 264.084 109.023L410.475 362.58C414.324 369.246 409.513 377.58 401.815 377.58H109.032C101.334 377.58 96.5231 369.246 100.372 362.58L246.763 109.023Z" fill="#0EC5FF"/>
<g filter="url(#filter0_di)">
<g filter="url(#filter1_di)">
<path d="M248.063 179.181C251.912 172.515 261.534 172.515 265.383 179.181L351.015 327.501C354.864 334.167 350.053 342.501 342.355 342.501H171.091C163.393 342.501 158.581 334.167 162.43 327.501L248.063 179.181Z" fill="#36393E"/>
</g>
</g>
<path d="M83.4471 455.005C87.2961 448.338 96.9186 448.338 100.768 455.005L247.159 708.562C251.008 715.229 246.197 723.562 238.499 723.562H-54.284C-61.982 723.562 -66.7933 715.229 -62.9443 708.562L83.4471 455.005Z" fill="#0EC5FF"/>
<g filter="url(#filter2_di)">
<path d="M265.383 703.953C261.534 710.62 251.912 710.62 248.063 703.953L101.671 450.396C97.8223 443.729 102.634 435.396 110.332 435.396L403.114 435.396C410.812 435.396 415.623 443.729 411.774 450.396L265.383 703.953Z" fill="#0EC5FF"/>
</g>
<path d="M-55.1482 3.84758C-58.9972 -2.81909 -54.186 -11.1524 -46.488 -11.1524L246.295 -11.1524C253.993 -11.1524 258.804 -2.81907 254.955 3.84759L108.564 257.405C104.715 264.071 95.0921 264.071 91.2431 257.405L-55.1482 3.84758Z" fill="#0EC5FF"/>
<path d="M-141.821 153.712C-145.67 147.045 -140.858 138.712 -133.16 138.712L159.622 138.712C167.32 138.712 172.131 147.045 168.282 153.712L21.8911 407.269C18.0421 413.936 8.41965 413.936 4.57064 407.269L-141.821 153.712Z" fill="#0EC5FF"/>
<path d="M264.998 108.887C261.149 102.22 251.526 102.22 247.677 108.887L101.286 362.444C97.4368 369.111 102.248 377.444 109.946 377.444H402.729C410.427 377.444 415.238 369.111 411.389 362.444L264.998 108.887Z" fill="#0EC5FF"/>
<path d="M263.698 179.045C259.849 172.379 250.227 172.379 246.378 179.045L160.746 327.365C156.897 334.032 161.708 342.365 169.406 342.365H340.67C348.368 342.365 353.18 334.032 349.331 327.365L263.698 179.045Z" fill="#36393E"/>
<path d="M428.314 454.869C424.465 448.203 414.842 448.203 410.993 454.869L264.602 708.426C260.753 715.093 265.564 723.426 273.262 723.426H566.045C573.743 723.426 578.554 715.093 574.705 708.426L428.314 454.869Z" fill="#0EC5FF"/>
<path d="M246.378 703.817C250.227 710.484 259.849 710.484 263.698 703.817L410.09 450.26C413.939 443.593 409.127 435.26 401.429 435.26L108.647 435.26C100.949 435.26 96.1376 443.593 99.9866 450.26L246.378 703.817Z" fill="#0EC5FF"/>
<path d="M566.909 3.71182C570.758 -2.95485 565.947 -11.2882 558.249 -11.2882L265.466 -11.2882C257.768 -11.2882 252.957 -2.95482 256.806 3.71185L403.197 257.269C407.046 263.936 416.669 263.936 420.518 257.269L566.909 3.71182Z" fill="#0EC5FF"/>
<path d="M653.582 153.576C657.431 146.909 652.619 138.576 644.921 138.576L352.139 138.576C344.441 138.576 339.63 146.909 343.479 153.576L489.87 407.133C493.719 413.8 503.341 413.8 507.19 407.133L653.582 153.576Z" fill="#0EC5FF"/>
</g>
<defs>
<filter id="filter0_di" x="157.076" y="174.181" width="199.294" height="176.319" filterUnits="userSpaceOnUse" color-interpolation-filters="sRGB">
<feFlood flood-opacity="0" result="BackgroundImageFix"/>
<feColorMatrix in="SourceAlpha" type="matrix" values="0 0 0 0 0 0 0 0 0 0 0 0 0 0 0 0 0 0 127 0" result="hardAlpha"/>
<feOffset dy="4"/>
<feGaussianBlur stdDeviation="2"/>
<feComposite in2="hardAlpha" operator="out"/>
<feColorMatrix type="matrix" values="0 0 0 0 0 0 0 0 0 0 0 0 0 0 0 0 0 0 0.25 0"/>
<feBlend mode="normal" in2="BackgroundImageFix" result="effect1_dropShadow"/>
<feBlend mode="normal" in="SourceGraphic" in2="effect1_dropShadow" result="shape"/>
<feColorMatrix in="SourceAlpha" type="matrix" values="0 0 0 0 0 0 0 0 0 0 0 0 0 0 0 0 0 0 127 0" result="hardAlpha"/>
<feOffset dy="4"/>
<feGaussianBlur stdDeviation="2"/>
<feComposite in2="hardAlpha" operator="arithmetic" k2="-1" k3="1"/>
<feColorMatrix type="matrix" values="0 0 0 0 0 0 0 0 0 0 0 0 0 0 0 0 0 0 0.25 0"/>
<feBlend mode="normal" in2="shape" result="effect2_innerShadow"/>
</filter>
<filter id="filter1_di" x="157.076" y="174.181" width="199.294" height="176.319" filterUnits="userSpaceOnUse" color-interpolation-filters="sRGB">
<feFlood flood-opacity="0" result="BackgroundImageFix"/>
<feColorMatrix in="SourceAlpha" type="matrix" values="0 0 0 0 0 0 0 0 0 0 0 0 0 0 0 0 0 0 127 0" result="hardAlpha"/>
<feOffset dy="4"/>
<feGaussianBlur stdDeviation="2"/>
<feComposite in2="hardAlpha" operator="out"/>
<feColorMatrix type="matrix" values="0 0 0 0 0 0 0 0 0 0 0 0 0 0 0 0 0 0 0.25 0"/>
<feBlend mode="normal" in2="BackgroundImageFix" result="effect1_dropShadow"/>
<feBlend mode="normal" in="SourceGraphic" in2="effect1_dropShadow" result="shape"/>
<feColorMatrix in="SourceAlpha" type="matrix" values="0 0 0 0 0 0 0 0 0 0 0 0 0 0 0 0 0 0 127 0" result="hardAlpha"/>
<feOffset dy="4"/>
<feGaussianBlur stdDeviation="2"/>
<feComposite in2="hardAlpha" operator="arithmetic" k2="-1" k3="1"/>
<feColorMatrix type="matrix" values="0 0 0 0 0 0 0 0 0 0 0 0 0 0 0 0 0 0 0.25 0"/>
<feBlend mode="normal" in2="shape" result="effect2_innerShadow"/>
</filter>
<filter id="filter2_di" x="96.3166" y="435.396" width="320.812" height="281.557" filterUnits="userSpaceOnUse" color-interpolation-filters="sRGB">
<feFlood flood-opacity="0" result="BackgroundImageFix"/>
<feColorMatrix in="SourceAlpha" type="matrix" values="0 0 0 0 0 0 0 0 0 0 0 0 0 0 0 0 0 0 127 0" result="hardAlpha"/>
<feOffset dy="4"/>
<feGaussianBlur stdDeviation="2"/>
<feComposite in2="hardAlpha" operator="out"/>
<feColorMatrix type="matrix" values="0 0 0 0 0 0 0 0 0 0 0 0 0 0 0 0 0 0 0.25 0"/>
<feBlend mode="normal" in2="BackgroundImageFix" result="effect1_dropShadow"/>
<feBlend mode="normal" in="SourceGraphic" in2="effect1_dropShadow" result="shape"/>
<feColorMatrix in="SourceAlpha" type="matrix" values="0 0 0 0 0 0 0 0 0 0 0 0 0 0 0 0 0 0 127 0" result="hardAlpha"/>
<feOffset dy="4"/>
<feGaussianBlur stdDeviation="2"/>
<feComposite in2="hardAlpha" operator="arithmetic" k2="-1" k3="1"/>
<feColorMatrix type="matrix" values="0 0 0 0 0 0 0 0 0 0 0 0 0 0 0 0 0 0 0.25 0"/>
<feBlend mode="normal" in2="shape" result="effect2_innerShadow"/>
</filter>
<clipPath id="clip0">
<rect width="512" height="512" fill="white"/>
</clipPath>
</defs>
</svg>
